<svg width="272" height="66" viewBox="0 0 272 66" fill="none" xmlns="http://www.w3.org/2000/svg">
<path d="M6.816 12.256C7.22133 12.32 7.58933 12.4853 7.92 12.752C8.26133 13.0187 8.528 13.3493 8.72 13.744C8.92267 14.1387 9.024 14.56 9.024 15.008C9.024 15.5733 8.88 16.0853 8.592 16.544C8.304 16.992 7.88267 17.3493 7.328 17.616C6.784 17.872 6.13867 18 5.392 18H1.232V6.848H5.232C5.98933 6.848 6.63467 6.976 7.168 7.232C7.70133 7.47733 8.10133 7.81333 8.368 8.24C8.63467 8.66667 8.768 9.14667 8.768 9.68C8.768 10.3413 8.58667 10.8907 8.224 11.328C7.872 11.7547 7.40267 12.064 6.816 12.256ZM2.688 11.664H5.136C5.81867 11.664 6.34667 11.504 6.72 11.184C7.09333 10.864 7.28 10.4213 7.28 9.856C7.28 9.29067 7.09333 8.848 6.72 8.528C6.34667 8.208 5.808 8.048 5.104 8.048H2.688V11.664ZM5.264 16.8C5.98933 16.8 6.55467 16.6293 6.96 16.288C7.36533 15.9467 7.568 15.472 7.568 14.864C7.568 14.2453 7.35467 13.76 6.928 13.408C6.50133 13.0453 5.93067 12.864 5.216 12.864H2.688V16.8H5.264ZM19.0445 13.28C19.0445 13.5573 19.0285 13.8507 18.9965 14.16H11.9885C12.0418 15.024 12.3352 15.7013 12.8685 16.192C13.4125 16.672 14.0685 16.912 14.8365 16.912C15.4658 16.912 15.9885 16.768 16.4045 16.48C16.8312 16.1813 17.1298 15.7867 17.3005 15.296H18.8685C18.6338 16.1387 18.1645 16.8267 17.4605 17.36C16.7565 17.8827 15.8818 18.144 14.8365 18.144C14.0045 18.144 13.2578 17.9573 12.5965 17.584C11.9458 17.2107 11.4338 16.6827 11.0605 16C10.6872 15.3067 10.5005 14.5067 10.5005 13.6C10.5005 12.6933 10.6818 11.8987 11.0445 11.216C11.4072 10.5333 11.9138 10.0107 12.5645 9.648C13.2258 9.27467 13.9832 9.088 14.8365 9.088C15.6685 9.088 16.4045 9.26933 17.0445 9.632C17.6845 9.99467 18.1752 10.496 18.5165 11.136C18.8685 11.7653 19.0445 12.48 19.0445 13.28ZM17.5405 12.976C17.5405 12.4213 17.4178 11.9467 17.1725 11.552C16.9272 11.1467 16.5912 10.8427 16.1645 10.64C15.7485 10.4267 15.2845 10.32 14.7725 10.32C14.0365 10.32 13.4072 10.5547 12.8845 11.024C12.3725 11.4933 12.0792 12.144 12.0045 12.976H17.5405ZM31.5104 9.072C32.193 9.072 32.801 9.216 33.3344 9.504C33.8677 9.78133 34.289 10.2027 34.5984 10.768C34.9077 11.3333 35.0624 12.0213 35.0624 12.832V18H33.6224V13.04C33.6224 12.1653 33.4037 11.4987 32.9664 11.04C32.5397 10.5707 31.9584 10.336 31.2224 10.336C30.465 10.336 29.8624 10.5813 29.4144 11.072C28.9664 11.552 28.7424 12.2507 28.7424 13.168V18H27.3024V13.04C27.3024 12.1653 27.0837 11.4987 26.6464 11.04C26.2197 10.5707 25.6384 10.336 24.9024 10.336C24.145 10.336 23.5424 10.5813 23.0944 11.072C22.6464 11.552 22.4224 12.2507 22.4224 13.168V18H20.9664V9.232H22.4224V10.496C22.7104 10.0373 23.0944 9.68533 23.5744 9.44C24.065 9.19467 24.6037 9.072 25.1904 9.072C25.9264 9.072 26.577 9.23733 27.1424 9.568C27.7077 9.89867 28.129 10.384 28.4064 11.024C28.6517 10.4053 29.057 9.92533 29.6224 9.584C30.1877 9.24267 30.817 9.072 31.5104 9.072ZM50.9324 6.848L46.7244 18H45.0444L40.8364 6.848H42.3884L45.8924 16.464L49.3964 6.848H50.9324ZM53.2809 7.808C53.0035 7.808 52.7689 7.712 52.5769 7.52C52.3849 7.328 52.2889 7.09333 52.2889 6.816C52.2889 6.53867 52.3849 6.304 52.5769 6.112C52.7689 5.92 53.0035 5.824 53.2809 5.824C53.5475 5.824 53.7715 5.92 53.9529 6.112C54.1449 6.304 54.2409 6.53867 54.2409 6.816C54.2409 7.09333 54.1449 7.328 53.9529 7.52C53.7715 7.712 53.5475 7.808 53.2809 7.808ZM53.9849 9.232V18H52.5289V9.232H53.9849ZM60.7384 9.072C61.805 9.072 62.669 9.39733 63.3304 10.048C63.9917 10.688 64.3224 11.616 64.3224 12.832V18H62.8824V13.04C62.8824 12.1653 62.6637 11.4987 62.2264 11.04C61.789 10.5707 61.1917 10.336 60.4344 10.336C59.6664 10.336 59.053 10.576 58.5944 11.056C58.1464 11.536 57.9224 12.2347 57.9224 13.152V18H56.4664V9.232H57.9224V10.48C58.2104 10.032 58.5997 9.68533 59.0904 9.44C59.5917 9.19467 60.141 9.072 60.7384 9.072ZM66.1568 13.584C66.1568 12.688 66.3381 11.904 66.7008 11.232C67.0634 10.5493 67.5594 10.0213 68.1888 9.648C68.8288 9.27467 69.5434 9.088 70.3328 9.088C71.0154 9.088 71.6501 9.248 72.2368 9.568C72.8234 9.87733 73.2714 10.288 73.5808 10.8V6.16H75.0528V18H73.5808V16.352C73.2928 16.8747 72.8661 17.3067 72.3008 17.648C71.7354 17.9787 71.0741 18.144 70.3168 18.144C69.5381 18.144 68.8288 17.952 68.1888 17.568C67.5594 17.184 67.0634 16.6453 66.7008 15.952C66.3381 15.2587 66.1568 14.4693 66.1568 13.584ZM73.5808 13.6C73.5808 12.9387 73.4474 12.3627 73.1808 11.872C72.9141 11.3813 72.5514 11.008 72.0928 10.752C71.6448 10.4853 71.1488 10.352 70.6048 10.352C70.0608 10.352 69.5648 10.48 69.1168 10.736C68.6688 10.992 68.3114 11.3653 68.0448 11.856C67.7781 12.3467 67.6448 12.9227 67.6448 13.584C67.6448 14.256 67.7781 14.8427 68.0448 15.344C68.3114 15.8347 68.6688 16.2133 69.1168 16.48C69.5648 16.736 70.0608 16.864 70.6048 16.864C71.1488 16.864 71.6448 16.736 72.0928 16.48C72.5514 16.2133 72.9141 15.8347 73.1808 15.344C73.4474 14.8427 73.5808 14.2613 73.5808 13.6ZM81.3373 18.144C80.5159 18.144 79.7693 17.9573 79.0973 17.584C78.4359 17.2107 77.9133 16.6827 77.5293 16C77.1559 15.3067 76.9693 14.5067 76.9693 13.6C76.9693 12.704 77.1613 11.9147 77.5453 11.232C77.9399 10.5387 78.4733 10.0107 79.1453 9.648C79.8173 9.27467 80.5693 9.088 81.4013 9.088C82.2333 9.088 82.9853 9.27467 83.6573 9.648C84.3293 10.0107 84.8573 10.5333 85.2413 11.216C85.6359 11.8987 85.8333 12.6933 85.8333 13.6C85.8333 14.5067 85.6306 15.3067 85.2253 16C84.8306 16.6827 84.2919 17.2107 83.6093 17.584C82.9266 17.9573 82.1693 18.144 81.3373 18.144ZM81.3373 16.864C81.8599 16.864 82.3506 16.7413 82.8093 16.496C83.2679 16.2507 83.6359 15.8827 83.9133 15.392C84.2013 14.9013 84.3453 14.304 84.3453 13.6C84.3453 12.896 84.2066 12.2987 83.9293 11.808C83.6519 11.3173 83.2893 10.9547 82.8413 10.72C82.3933 10.4747 81.9079 10.352 81.3853 10.352C80.8519 10.352 80.3613 10.4747 79.9133 10.72C79.4759 10.9547 79.1239 11.3173 78.8573 11.808C78.5906 12.2987 78.4573 12.896 78.4573 13.6C78.4573 14.3147 78.5853 14.9173 78.8413 15.408C79.1079 15.8987 79.4599 16.2667 79.8973 16.512C80.3346 16.7467 80.8146 16.864 81.3373 16.864ZM95.7573 20.976C94.7333 19.9733 93.9333 18.6987 93.3573 17.152C92.7919 15.6053 92.5093 13.936 92.5093 12.144C92.5093 10.3093 92.8079 8.59733 93.4053 7.008C94.0133 5.408 94.8773 4.09067 95.9973 3.056H97.5173V3.2C96.3226 4.32 95.4213 5.66933 94.8133 7.248C94.2159 8.816 93.9173 10.448 93.9173 12.144C93.9173 13.7973 94.1999 15.376 94.7653 16.88C95.3413 18.384 96.1786 19.7013 97.2773 20.832V20.976H95.7573ZM98.7349 13.584C98.7349 12.688 98.9162 11.904 99.2789 11.232C99.6415 10.5493 100.138 10.0213 100.767 9.648C101.407 9.27467 102.116 9.088 102.895 9.088C103.663 9.088 104.33 9.25333 104.895 9.584C105.46 9.91467 105.882 10.3307 106.159 10.832V9.232H107.631V18H106.159V16.368C105.871 16.88 105.439 17.3067 104.863 17.648C104.298 17.9787 103.636 18.144 102.879 18.144C102.1 18.144 101.396 17.952 100.767 17.568C100.138 17.184 99.6415 16.6453 99.2789 15.952C98.9162 15.2587 98.7349 14.4693 98.7349 13.584ZM106.159 13.6C106.159 12.9387 106.026 12.3627 105.759 11.872C105.492 11.3813 105.13 11.008 104.671 10.752C104.223 10.4853 103.727 10.352 103.183 10.352C102.639 10.352 102.143 10.48 101.695 10.736C101.247 10.992 100.89 11.3653 100.623 11.856C100.356 12.3467 100.223 12.9227 100.223 13.584C100.223 14.256 100.356 14.8427 100.623 15.344C100.89 15.8347 101.247 16.2133 101.695 16.48C102.143 16.736 102.639 16.864 103.183 16.864C103.727 16.864 104.223 16.736 104.671 16.48C105.13 16.2133 105.492 15.8347 105.759 15.344C106.026 14.8427 106.159 14.2613 106.159 13.6ZM109.627 20.976V20.832C110.726 19.7013 111.558 18.384 112.123 16.88C112.699 15.376 112.987 13.7973 112.987 12.144C112.987 10.448 112.683 8.816 112.075 7.248C111.478 5.66933 110.582 4.32 109.387 3.2V3.056H110.907C112.027 4.09067 112.886 5.408 113.483 7.008C114.091 8.59733 114.395 10.3093 114.395 12.144C114.395 13.936 114.107 15.6053 113.531 17.152C112.966 18.6987 112.171 19.9733 111.147 20.976H109.627ZM121.079 13.584C121.079 12.688 121.26 11.904 121.623 11.232C121.985 10.5493 122.481 10.0213 123.111 9.648C123.751 9.27467 124.46 9.088 125.239 9.088C126.007 9.088 126.673 9.25333 127.239 9.584C127.804 9.91467 128.225 10.3307 128.503 10.832V9.232H129.975V18H128.503V16.368C128.215 16.88 127.783 17.3067 127.207 17.648C126.641 17.9787 125.98 18.144 125.223 18.144C124.444 18.144 123.74 17.952 123.111 17.568C122.481 17.184 121.985 16.6453 121.623 15.952C121.26 15.2587 121.079 14.4693 121.079 13.584ZM128.503 13.6C128.503 12.9387 128.369 12.3627 128.103 11.872C127.836 11.3813 127.473 11.008 127.015 10.752C126.567 10.4853 126.071 10.352 125.527 10.352C124.983 10.352 124.487 10.48 124.039 10.736C123.591 10.992 123.233 11.3653 122.967 11.856C122.7 12.3467 122.567 12.9227 122.567 13.584C122.567 14.256 122.7 14.8427 122.967 15.344C123.233 15.8347 123.591 16.2133 124.039 16.48C124.487 16.736 124.983 16.864 125.527 16.864C126.071 16.864 126.567 16.736 127.015 16.48C127.473 16.2133 127.836 15.8347 128.103 15.344C128.369 14.8427 128.503 14.2613 128.503 13.6ZM136.259 18.144C135.438 18.144 134.691 17.9573 134.019 17.584C133.358 17.2107 132.835 16.6827 132.451 16C132.078 15.3067 131.891 14.5067 131.891 13.6C131.891 12.704 132.083 11.9147 132.467 11.232C132.862 10.5387 133.395 10.0107 134.067 9.648C134.739 9.27467 135.491 9.088 136.323 9.088C137.155 9.088 137.907 9.27467 138.579 9.648C139.251 10.0107 139.779 10.5333 140.163 11.216C140.558 11.8987 140.755 12.6933 140.755 13.6C140.755 14.5067 140.552 15.3067 140.147 16C139.752 16.6827 139.214 17.2107 138.531 17.584C137.848 17.9573 137.091 18.144 136.259 18.144ZM136.259 16.864C136.782 16.864 137.272 16.7413 137.731 16.496C138.19 16.2507 138.558 15.8827 138.835 15.392C139.123 14.9013 139.267 14.304 139.267 13.6C139.267 12.896 139.128 12.2987 138.851 11.808C138.574 11.3173 138.211 10.9547 137.763 10.72C137.315 10.4747 136.83 10.352 136.307 10.352C135.774 10.352 135.283 10.4747 134.835 10.72C134.398 10.9547 134.046 11.3173 133.779 11.808C133.512 12.2987 133.379 12.896 133.379 13.6C133.379 14.3147 133.507 14.9173 133.763 15.408C134.03 15.8987 134.382 16.2667 134.819 16.512C135.256 16.7467 135.736 16.864 136.259 16.864Z" fill="black"/>
<path d="M16.608 30.536V34.92H7.456V39.656H14.304V43.912H7.456V53H1.984V30.536H16.608ZM18.396 44.04C18.396 42.2053 18.7373 40.5947 19.42 39.208C20.124 37.8213 21.0733 36.7547 22.268 36.008C23.4627 35.2613 24.796 34.888 26.268 34.888C27.5267 34.888 28.6253 35.144 29.564 35.656C30.524 36.168 31.26 36.84 31.772 37.672V35.144H37.244V53H31.772V50.472C31.2387 51.304 30.492 51.976 29.532 52.488C28.5933 53 27.4947 53.256 26.236 53.256C24.7853 53.256 23.4627 52.8827 22.268 52.136C21.0733 51.368 20.124 50.2907 19.42 48.904C18.7373 47.496 18.396 45.8747 18.396 44.04ZM31.772 44.072C31.772 42.7067 31.388 41.6293 30.62 40.84C29.8733 40.0507 28.956 39.656 27.868 39.656C26.78 39.656 25.852 40.0507 25.084 40.84C24.3373 41.608 23.964 42.6747 23.964 44.04C23.964 45.4053 24.3373 46.4933 25.084 47.304C25.852 48.0933 26.78 48.488 27.868 48.488C28.956 48.488 29.8733 48.0933 30.62 47.304C31.388 46.5147 31.772 45.4373 31.772 44.072ZM51.1548 48.36V53H48.3708C46.3868 53 44.8401 52.52 43.7308 51.56C42.6214 50.5787 42.0668 48.9893 42.0668 46.792V39.688H39.8908V35.144H42.0668V30.792H47.5388V35.144H51.1228V39.688H47.5388V46.856C47.5388 47.3893 47.6668 47.7733 47.9228 48.008C48.1788 48.2427 48.6054 48.36 49.2028 48.36H51.1548ZM56.9548 33.288C55.9948 33.288 55.2054 33.0107 54.5868 32.456C53.9894 31.88 53.6908 31.176 53.6908 30.344C53.6908 29.4907 53.9894 28.7867 54.5868 28.232C55.2054 27.656 55.9948 27.368 56.9548 27.368C57.8934 27.368 58.6614 27.656 59.2588 28.232C59.8774 28.7867 60.1868 29.4907 60.1868 30.344C60.1868 31.176 59.8774 31.88 59.2588 32.456C58.6614 33.0107 57.8934 33.288 56.9548 33.288ZM59.6748 35.144V53H54.2028V35.144H59.6748ZM62.5523 44.04C62.5523 42.2053 62.8936 40.5947 63.5763 39.208C64.2803 37.8213 65.2296 36.7547 66.4243 36.008C67.6189 35.2613 68.9523 34.888 70.4243 34.888C71.6829 34.888 72.7816 35.144 73.7203 35.656C74.6803 36.168 75.4163 36.84 75.9283 37.672V35.144H81.4003V53H75.9283V50.472C75.3949 51.304 74.6483 51.976 73.6883 52.488C72.7496 53 71.6509 53.256 70.3923 53.256C68.9416 53.256 67.6189 52.8827 66.4243 52.136C65.2296 51.368 64.2803 50.2907 63.5763 48.904C62.8936 47.496 62.5523 45.8747 62.5523 44.04ZM75.9283 44.072C75.9283 42.7067 75.5443 41.6293 74.7763 40.84C74.0296 40.0507 73.1123 39.656 72.0243 39.656C70.9363 39.656 70.0083 40.0507 69.2403 40.84C68.4936 41.608 68.1203 42.6747 68.1203 44.04C68.1203 45.4053 68.4936 46.4933 69.2403 47.304C70.0083 48.0933 70.9363 48.488 72.0243 48.488C73.1123 48.488 74.0296 48.0933 74.7763 47.304C75.5443 46.5147 75.9283 45.4373 75.9283 44.072ZM92.623 53.256C91.0657 53.256 89.679 52.9893 88.463 52.456C87.247 51.9227 86.287 51.1973 85.583 50.28C84.879 49.3413 84.4843 48.296 84.399 47.144H89.807C89.871 47.7627 90.159 48.264 90.671 48.648C91.183 49.032 91.8123 49.224 92.559 49.224C93.2417 49.224 93.7643 49.096 94.127 48.84C94.511 48.5627 94.703 48.2107 94.703 47.784C94.703 47.272 94.4363 46.8987 93.903 46.664C93.3697 46.408 92.5057 46.1307 91.311 45.832C90.031 45.5333 88.9643 45.224 88.111 44.904C87.2577 44.5627 86.5217 44.04 85.903 43.336C85.2843 42.6107 84.975 41.64 84.975 40.424C84.975 39.4 85.2523 38.472 85.807 37.64C86.383 36.7867 87.215 36.1147 88.303 35.624C89.4123 35.1333 90.7243 34.888 92.239 34.888C94.479 34.888 96.239 35.4427 97.519 36.552C98.8203 37.6613 99.567 39.1333 99.759 40.968H94.703C94.6177 40.3493 94.3403 39.8587 93.871 39.496C93.423 39.1333 92.8257 38.952 92.079 38.952C91.439 38.952 90.9483 39.08 90.607 39.336C90.2657 39.5707 90.095 39.9013 90.095 40.328C90.095 40.84 90.3617 41.224 90.895 41.48C91.4497 41.736 92.303 41.992 93.455 42.248C94.7777 42.5893 95.855 42.9307 96.687 43.272C97.519 43.592 98.2443 44.1253 98.863 44.872C99.503 45.5973 99.8337 46.5787 99.855 47.816C99.855 48.8613 99.5563 49.8 98.959 50.632C98.383 51.4427 97.5403 52.0827 96.431 52.552C95.343 53.0213 94.0737 53.256 92.623 53.256ZM127.168 53L125.088 50.984C123.019 52.5627 120.544 53.352 117.664 53.352C115.936 53.352 114.432 53.0747 113.152 52.52C111.872 51.944 110.88 51.144 110.176 50.12C109.493 49.0747 109.152 47.8587 109.152 46.472C109.152 45.064 109.525 43.7947 110.272 42.664C111.04 41.512 112.181 40.5733 113.696 39.848C113.141 39.1653 112.747 38.5147 112.512 37.896C112.277 37.256 112.16 36.5627 112.16 35.816C112.16 34.7493 112.437 33.7787 112.992 32.904C113.547 32.0293 114.347 31.3467 115.392 30.856C116.459 30.344 117.717 30.088 119.168 30.088C120.64 30.088 121.888 30.3547 122.912 30.888C123.936 31.4213 124.704 32.136 125.216 33.032C125.728 33.928 125.963 34.9093 125.92 35.976H120.768C120.789 35.4 120.64 34.9627 120.32 34.664C120.021 34.344 119.616 34.184 119.104 34.184C118.592 34.184 118.165 34.3333 117.824 34.632C117.483 34.9307 117.312 35.3147 117.312 35.784C117.312 36.232 117.451 36.7013 117.728 37.192C118.027 37.6827 118.485 38.248 119.104 38.888L124.576 44.232C124.619 44.1253 124.672 43.9973 124.736 43.848C124.821 43.6987 124.907 43.528 124.992 43.336L126.176 41.32H131.648L130.112 44.104C129.536 45.3627 128.875 46.5573 128.128 47.688L133.536 53H127.168ZM117.92 48.936C119.349 48.936 120.619 48.5307 121.728 47.72L116.736 42.888C115.2 43.6773 114.432 44.744 114.432 46.088C114.432 46.8987 114.741 47.5813 115.36 48.136C116 48.6693 116.853 48.936 117.92 48.936ZM149.849 53.224C148.377 53.224 147.054 52.968 145.881 52.456C144.729 51.9227 143.822 51.1973 143.161 50.28C142.499 49.3413 142.158 48.264 142.137 47.048H145.241C145.347 48.0933 145.774 48.9787 146.521 49.704C147.289 50.408 148.398 50.76 149.849 50.76C151.235 50.76 152.323 50.4187 153.113 49.736C153.923 49.032 154.329 48.136 154.329 47.048C154.329 46.1947 154.094 45.5013 153.625 44.968C153.155 44.4347 152.569 44.0293 151.865 43.752C151.161 43.4747 150.211 43.176 149.017 42.856C147.545 42.472 146.361 42.088 145.465 41.704C144.59 41.32 143.833 40.7227 143.193 39.912C142.574 39.08 142.265 37.9707 142.265 36.584C142.265 35.368 142.574 34.2907 143.193 33.352C143.811 32.4133 144.675 31.688 145.785 31.176C146.915 30.664 148.206 30.408 149.657 30.408C151.747 30.408 153.454 30.9307 154.777 31.976C156.121 33.0213 156.878 34.408 157.049 36.136H153.849C153.742 35.2827 153.294 34.536 152.505 33.896C151.715 33.2347 150.67 32.904 149.369 32.904C148.153 32.904 147.161 33.224 146.393 33.864C145.625 34.4827 145.241 35.3573 145.241 36.488C145.241 37.2987 145.465 37.96 145.913 38.472C146.382 38.984 146.947 39.3787 147.609 39.656C148.291 39.912 149.241 40.2107 150.457 40.552C151.929 40.9573 153.113 41.3627 154.009 41.768C154.905 42.152 155.673 42.76 156.312 43.592C156.953 44.4027 157.273 45.512 157.273 46.92C157.273 48.008 156.985 49.032 156.409 49.992C155.833 50.952 154.979 51.7307 153.849 52.328C152.718 52.9253 151.385 53.224 149.849 53.224ZM160.47 44.168C160.47 42.376 160.832 40.808 161.558 39.464C162.283 38.0987 163.275 37.0427 164.534 36.296C165.814 35.5493 167.232 35.176 168.79 35.176C170.326 35.176 171.659 35.5067 172.79 36.168C173.92 36.8293 174.763 37.6613 175.318 38.664V35.464H178.262V53H175.318V49.736C174.742 50.76 173.878 51.6133 172.726 52.296C171.595 52.9573 170.272 53.288 168.758 53.288C167.2 53.288 165.792 52.904 164.534 52.136C163.275 51.368 162.283 50.2907 161.558 48.904C160.832 47.5173 160.47 45.9387 160.47 44.168ZM175.318 44.2C175.318 42.8773 175.051 41.7253 174.518 40.744C173.984 39.7627 173.259 39.016 172.342 38.504C171.446 37.9707 170.454 37.704 169.366 37.704C168.278 37.704 167.286 37.96 166.39 38.472C165.494 38.984 164.779 39.7307 164.246 40.712C163.712 41.6933 163.446 42.8453 163.446 44.168C163.446 45.512 163.712 46.6853 164.246 47.688C164.779 48.6693 165.494 49.4267 166.39 49.96C167.286 50.472 168.278 50.728 169.366 50.728C170.454 50.728 171.446 50.472 172.342 49.96C173.259 49.4267 173.984 48.6693 174.518 47.688C175.051 46.6853 175.318 45.5227 175.318 44.2ZM186.095 38.728C186.692 37.6827 187.567 36.8293 188.719 36.168C189.871 35.5067 191.183 35.176 192.655 35.176C194.233 35.176 195.652 35.5493 196.911 36.296C198.169 37.0427 199.161 38.0987 199.887 39.464C200.612 40.808 200.975 42.376 200.975 44.168C200.975 45.9387 200.612 47.5173 199.887 48.904C199.161 50.2907 198.159 51.368 196.879 52.136C195.62 52.904 194.212 53.288 192.655 53.288C191.14 53.288 189.807 52.9573 188.655 52.296C187.524 51.6347 186.671 50.792 186.095 49.768V53H183.183V29.32H186.095V38.728ZM197.999 44.168C197.999 42.8453 197.732 41.6933 197.199 40.712C196.665 39.7307 195.94 38.984 195.023 38.472C194.127 37.96 193.135 37.704 192.047 37.704C190.98 37.704 189.988 37.9707 189.071 38.504C188.175 39.016 187.449 39.7733 186.895 40.776C186.361 41.7573 186.095 42.8987 186.095 44.2C186.095 45.5227 186.361 46.6853 186.895 47.688C187.449 48.6693 188.175 49.4267 189.071 49.96C189.988 50.472 190.98 50.728 192.047 50.728C193.135 50.728 194.127 50.472 195.023 49.96C195.94 49.4267 196.665 48.6693 197.199 47.688C197.732 46.6853 197.999 45.512 197.999 44.168ZM212.456 53.288C210.813 53.288 209.32 52.9147 207.976 52.168C206.653 51.4213 205.608 50.3653 204.84 49C204.093 47.6133 203.72 46.0133 203.72 44.2C203.72 42.408 204.104 40.8293 204.872 39.464C205.661 38.0773 206.728 37.0213 208.072 36.296C209.416 35.5493 210.92 35.176 212.584 35.176C214.248 35.176 215.752 35.5493 217.096 36.296C218.44 37.0213 219.496 38.0667 220.264 39.432C221.053 40.7973 221.448 42.3867 221.448 44.2C221.448 46.0133 221.042 47.6133 220.232 49C219.442 50.3653 218.365 51.4213 217 52.168C215.634 52.9147 214.12 53.288 212.456 53.288ZM212.456 50.728C213.501 50.728 214.482 50.4827 215.4 49.992C216.317 49.5013 217.053 48.7653 217.608 47.784C218.184 46.8027 218.472 45.608 218.472 44.2C218.472 42.792 218.194 41.5973 217.64 40.616C217.085 39.6347 216.36 38.9093 215.464 38.44C214.568 37.9493 213.597 37.704 212.552 37.704C211.485 37.704 210.504 37.9493 209.608 38.44C208.733 38.9093 208.029 39.6347 207.496 40.616C206.962 41.5973 206.696 42.792 206.696 44.2C206.696 45.6293 206.952 46.8347 207.464 47.816C207.997 48.7973 208.701 49.5333 209.576 50.024C210.45 50.4933 211.41 50.728 212.456 50.728ZM228.189 38.312C228.701 37.3093 229.426 36.5307 230.365 35.976C231.325 35.4213 232.487 35.144 233.853 35.144V38.152H233.085C229.821 38.152 228.189 39.9227 228.189 43.464V53H225.277V35.464H228.189V38.312ZM253.214 43.56C253.214 44.1147 253.182 44.7013 253.118 45.32H239.102C239.209 47.048 239.795 48.4027 240.862 49.384C241.95 50.344 243.262 50.824 244.798 50.824C246.057 50.824 247.102 50.536 247.934 49.96C248.787 49.3627 249.385 48.5733 249.726 47.592H252.862C252.393 49.2773 251.454 50.6533 250.046 51.72C248.638 52.7653 246.889 53.288 244.798 53.288C243.134 53.288 241.641 52.9147 240.318 52.168C239.017 51.4213 237.993 50.3653 237.246 49C236.499 47.6133 236.126 46.0133 236.126 44.2C236.126 42.3867 236.489 40.7973 237.214 39.432C237.939 38.0667 238.953 37.0213 240.254 36.296C241.577 35.5493 243.091 35.176 244.798 35.176C246.462 35.176 247.934 35.5387 249.214 36.264C250.494 36.9893 251.475 37.992 252.158 39.272C252.862 40.5307 253.214 41.96 253.214 43.56ZM250.206 42.952C250.206 41.8427 249.961 40.8933 249.47 40.104C248.979 39.2933 248.307 38.6853 247.454 38.28C246.622 37.8533 245.694 37.64 244.67 37.64C243.198 37.64 241.939 38.1093 240.894 39.048C239.87 39.9867 239.283 41.288 239.134 42.952H250.206ZM263.266 53.288C261.922 53.288 260.716 53.064 259.65 52.616C258.583 52.1467 257.74 51.5067 257.122 50.696C256.503 49.864 256.162 48.9147 256.098 47.848H259.106C259.191 48.7227 259.596 49.4373 260.322 49.992C261.068 50.5467 262.039 50.824 263.234 50.824C264.343 50.824 265.218 50.5787 265.858 50.088C266.498 49.5973 266.818 48.9787 266.818 48.232C266.818 47.464 266.476 46.8987 265.794 46.536C265.111 46.152 264.055 45.7787 262.626 45.416C261.324 45.0747 260.258 44.7333 259.426 44.392C258.615 44.0293 257.911 43.5067 257.314 42.824C256.738 42.12 256.45 41.2027 256.45 40.072C256.45 39.176 256.716 38.3547 257.25 37.608C257.783 36.8613 258.54 36.2747 259.522 35.848C260.503 35.4 261.623 35.176 262.882 35.176C264.823 35.176 266.391 35.6667 267.586 36.648C268.78 37.6293 269.42 38.9733 269.506 40.68H266.594C266.53 39.7627 266.156 39.0267 265.474 38.472C264.812 37.9173 263.916 37.64 262.786 37.64C261.74 37.64 260.908 37.864 260.29 38.312C259.671 38.76 259.362 39.3467 259.362 40.072C259.362 40.648 259.543 41.128 259.906 41.512C260.29 41.8747 260.759 42.1733 261.314 42.408C261.89 42.6213 262.679 42.8667 263.682 43.144C264.94 43.4853 265.964 43.8267 266.754 44.168C267.543 44.488 268.215 44.9787 268.77 45.64C269.346 46.3013 269.644 47.1653 269.666 48.232C269.666 49.192 269.399 50.056 268.866 50.824C268.332 51.592 267.575 52.2 266.594 52.648C265.634 53.0747 264.524 53.288 263.266 53.288Z" fill="black"/>
</svg>
